<?xml version="1.0" encoding="UTF-8"?>
<svg id="Layer_1" data-name="Layer 1" xmlns="http://www.w3.org/2000/svg" viewBox="0 0 100 100">
  <defs>
    <style>
      .cls-1 {
        fill: #2e4b91;
      }

      .cls-1, .cls-2 {
        stroke: #231f20;
        stroke-miterlimit: 10;
        stroke-width: .25px;
      }

      .cls-2 {
        fill: #f95d39;
      }
    </style>
  </defs>
  <path class="cls-1" d="M66.04,35.81c-.06,.24-.13,.48-.2,.72-.06,.21-.12,.42-.19,.63-.08,.24-.15,.48-.24,.72-.08,.22-.16,.44-.24,.65-.09,.24-.19,.49-.3,.73-.09,.22-.19,.43-.29,.64-.17,.34-.34,.68-.51,1.01-.13,.25-.28,.49-.42,.73-.16,.25-.31,.51-.48,.74-.24,.34-.48,.68-.73,.99-.27,.33-.55,.64-.83,.94-.17,.19-.35,.36-.53,.53-.23,.21-.47,.4-.7,.6-.13,.1-.25,.2-.38,.3-.13,.1-.27,.19-.41,.27-.11,.07-.22,.15-.33,.21-.11,.06-.21,.13-.32,.18-.14,.08-.28,.15-.42,.22-.13,.06-.26,.13-.39,.18-.18,.08-.35,.15-.53,.21-.21,.07-.42,.13-.63,.2-.12,.04-.24,.07-.35,.09-.09,.02-.19,.04-.29,.06-.1,.02-.2,.04-.3,.06-.02,0-.04,0-.06,.01-.17,.01-.33,.02-.49,.04-.03,0-1.32,0-1.34,0-.13-.02-.27-.02-.4-.04-.13-.02-.26-.04-.39-.06-.09-.02-.18-.03-.27-.05-.13-.03-.26-.07-.39-.1-.15-.04-.29-.08-.44-.13,0,0-.01,0-.02,0-.16-.05-.32-.12-.49-.18-.07-.03-.15-.06-.23-.09-.17-.08-.33-.16-.5-.24-.13-.06-.25-.12-.38-.19-.07-.04-.13-.08-.2-.12-.04-.03-.08-.05-.13-.08-.06-.04-.13-.07-.19-.12-.1-.06-.2-.13-.29-.19-.05-.04-.1-.08-.16-.12-.17-.13-.34-.26-.52-.4-.15-.12-.3-.24-.45-.36-.12-.09-.23-.19-.35-.28-.12-.1-.25-.19-.37-.28-.09-.06-.17-.13-.26-.2-.09-.07-.19-.13-.28-.2-.15-.1-.3-.2-.45-.3-.11-.07-.22-.13-.33-.2-.11-.06-.22-.14-.32-.2-.06-.04-.11-.07-.17-.1-.22-.12-.44-.24-.67-.35-.29-.14-.57-.28-.86-.41-.29-.13-.58-.25-.88-.36-.21-.08-.42-.14-.63-.21-.2-.06-.39-.13-.59-.19-.04-.01-.07-.02-.11-.02-.14-.03-.28-.06-.42-.1-.14-.04-.28-.07-.42-.1-.09-.02-.18-.03-.27-.05-.1-.02-.2-.04-.3-.05-.12-.02-.24-.04-.36-.05-.21-.03-.42-.05-.63-.07-.07,0-.14,0-.21,0-.53-.06-1.06-.04-1.58-.03-.25,0-.51,.04-.76,.06-.18,.02-.36,.03-.54,.05-.12,.02-.24,.04-.36,.06-.1,.02-.21,.03-.31,.05-.1,.02-.2,.04-.29,.06-.07,.02-.14,.03-.21,.04-.09,.02-.18,.05-.27,.07,.04-.07,.15-.26,.28-.42,.18-.18,.36-.36,.54-.53,.11-.1,.22-.19,.33-.29,.11-.1,.23-.2,.34-.29,.08-.06,.16-.12,.24-.18,.14-.1,.28-.2,.42-.3,.1-.07,.2-.13,.31-.2,.05-.03,.09-.06,.14-.09,.21-.12,.42-.25,.63-.37,.13-.07,.27-.13,.4-.19,.15-.07,.3-.13,.45-.2,.13-.05,.27-.1,.41-.15,.11-.04,.22-.08,.33-.12,.04-.01,.08-.02,.12-.03,.13-.03,.26-.06,.39-.09,.16-.04,.31-.08,.47-.11,.09-.02,.18-.03,.28-.04,.45-.05,.9-.09,1.36-.07,.25,0,.5,.04,.74,.07,.1,0,.21,.02,.31,.04,.12,.02,.25,.04,.37,.07,.13,.03,.27,.05,.4,.09,.12,.03,.24,.07,.36,.11,.13,.04,.26,.08,.38,.12,.18,.07,.36,.14,.54,.21,.07,.03,.14,.06,.21,.09,.21,.1,.42,.21,.63,.32,.12,.06,.24,.13,.36,.2,.23,.14,.45,.3,.67,.45,.13,.09,.25,.17,.38,.27,.14,.11,.29,.23,.42,.35,.17,.15,.34,.3,.51,.46,.15,.14,.29,.29,.44,.44,.13,.13,.26,.25,.38,.37,.14,.13,.28,.25,.42,.37,.12,.1,.24,.19,.36,.28,.12,.09,.25,.19,.37,.27,.15,.1,.3,.2,.45,.29,.11,.07,.22,.14,.34,.21,.11,.06,.23,.12,.34,.18,.14,.07,.29,.15,.43,.21,.15,.07,.3,.13,.45,.19,.07,.02,.13,.05,.2,.08,.08,.03,.15,.05,.23,.08,.14,.05,.29,.08,.43,.12,.1,.03,.2,.05,.3,.08,.05,.01,.1,.02,.15,.04,.06,.02,.12,.02,.18,.03,.12,.02,.24,.04,.36,.05,.21,.02,.41,.04,.62,.05,.23,.02,.47,.03,.7,.02,.27,0,.54-.04,.8-.08,.18-.02,.36-.07,.54-.11,.16-.04,.31-.07,.47-.11,.14-.04,.28-.08,.41-.13,.25-.09,.5-.18,.75-.29,.19-.08,.38-.19,.57-.28,.12-.06,.25-.13,.37-.2,.15-.09,.3-.19,.44-.28,.1-.06,.21-.13,.31-.2,.08-.06,.17-.12,.25-.19,.12-.1,.25-.2,.37-.3,.1-.09,.21-.17,.31-.27,.11-.09,.22-.19,.32-.3,.18-.17,.35-.35,.52-.53,.16-.17,.32-.35,.47-.53,.13-.16,.26-.32,.39-.49,.3-.39,.59-.8,.86-1.25,.19-.31,.37-.61,.54-.93,.14-.25,.27-.52,.4-.79,.14-.3,.28-.6,.41-.9,.08-.19,.28-.69,.3-.74,0,0-.01,.27-.09,.53Z"/>
  <circle class="cls-2" cx="22.14" cy="43.23" r="5.87"/>
  <path class="cls-1" d="M95,42.25c-.05,.07-.51,.84-.7,1.13-.31,.47-.63,.92-.95,1.38-.3,.41-.6,.83-.92,1.21-.41,.49-.83,.97-1.26,1.43-.62,.68-1.3,1.31-2,1.92-.29,.25-.59,.5-.9,.74-.36,.28-.72,.56-1.1,.82-.4,.28-.8,.55-1.21,.82-.24,.16-.49,.31-.74,.45-.23,.14-.47,.28-.71,.41-.29,.15-.57,.3-.86,.45-.19,.1-.39,.19-.59,.29-.23,.11-.47,.21-.71,.3-.34,.15-.68,.3-1.03,.44-.28,.11-.56,.21-.85,.3-.44,.15-.88,.31-1.33,.43-.57,.16-1.16,.3-1.74,.45-.32,.08-.64,.14-.96,.19-.36,.06-.72,.11-1.08,.17-.42,.06-.83,.14-1.25,.18-.62,.05-1.24,.1-1.87,.11-.53,.01-1.08-.01-1.62-.04-.48-.02-.95-.04-1.43-.08-.27-.02-.55-.06-.83-.08-.14-.02-.29-.03-.43-.05-.11-.02-.23-.04-.35-.06-.07,0-.13-.02-.2-.04-.16-.02-.33-.05-.49-.08-.34-.06-.67-.12-1-.19-.18-.04-.36-.08-.53-.12-.11-.03-.23-.06-.34-.09-.04,0-.08-.02-.12-.03-.35-.09-.7-.19-1.05-.29-.33-.1-.66-.21-1-.32-.26-.09-.53-.18-.79-.28-.26-.1-.52-.21-.78-.32-.35-.15-.69-.29-1.03-.45-.3-.13-.58-.28-.87-.42-.28-.14-.56-.28-.84-.43-.33-.19-.65-.38-.97-.57-.3-.19-.6-.38-.89-.57-.34-.22-.68-.45-1.02-.67-.39-.24-.78-.47-1.18-.7-.32-.19-.65-.37-.98-.54-.29-.14-.58-.28-.87-.41-.52-.23-1.03-.47-1.55-.68-.27-.12-.55-.21-.83-.31-.49-.16-.98-.33-1.47-.49-.16-.06-.33-.11-.49-.15-.41-.11-.83-.23-1.24-.33-.29-.07-.59-.13-.89-.19-.28-.06-.56-.11-.83-.16-.31-.05-.62-.09-.93-.13-.28-.04-.56-.08-.85-.11-.23-.03-.47-.04-.71-.05-.57-.04-1.15-.09-1.72-.11-1.05-.03-2.11,.03-3.15,.11-.22,.01-.43,.04-.64,.07-.36,.05-.72,.11-1.08,.17-.3,.04-.6,.09-.9,.13-.09,.02-.19,.03-.28,.05-.26,.06-.52,.11-.77,.18-.32,.08-.64,.15-.95,.23-.36,.09-.71,.2-1.05,.3-.31,.09-.62,.18-.93,.29-.49,.18-.97,.37-1.47,.56-.11,.04-.22,.09-.33,.13-.24,.1-.48,.19-.71,.3-.33,.15-.64,.3-.97,.46-.18,.09-.37,.18-.55,.27-.26,.15-.53,.3-.79,.45-.26,.15-.51,.29-.76,.44-.39,.24-.77,.49-1.14,.74-.08,0-.16-.02-.25-.03-.26-.04-.53-.07-.8-.1-.23-.02-.45-.04-.68-.05-.54-.03-1.09-.08-1.63-.1-.99-.03-1.99,.03-2.97,.11-.2,.02-.41,.04-.6,.07-.34,.04-.68,.1-1.02,.15-.29,.04-.57,.09-.85,.13-.09,.01-.18,.03-.27,.04-.24,.05-.49,.11-.73,.17-.3,.07-.6,.14-.9,.22-.33,.09-.66,.19-.99,.28-.3,.09-.59,.17-.88,.28-.47,.17-.92,.35-1.39,.53-.1,.04-.21,.08-.31,.13-.23,.09-.45,.18-.67,.28-.31,.14-.61,.29-.91,.43-.17,.09-.35,.17-.52,.26-.25,.14-.5,.28-.75,.42-.24,.14-.49,.27-.72,.41-.4,.25-.79,.51-1.19,.77-.28,.22-.53,.5-.61,.6,.19-.03,.39-.07,.59-.1,.15-.03,.3-.04,.45-.06,.22-.03,.43-.07,.64-.09,.23-.03,.45-.05,.68-.08,.26-.03,.53-.07,.79-.08,.4-.04,.79-.06,1.19-.08,.55-.03,1.11-.08,1.66-.08,1.16-.01,2.31-.04,3.47,.05,.15,.01,.3,0,.45,.01,.46,.03,.92,.06,1.38,.1,.26,.02,.53,.05,.79,.08,.22,.02,.44,.05,.66,.08,.2,.02,.4,.04,.6,.07,.31,.05,.62,.1,.93,.15,.31,.05,.62,.1,.93,.15,.08,.01,.15,.02,.23,.03,.43,.09,.87,.18,1.29,.28,.46,.1,.93,.19,1.39,.3,.64,.16,1.28,.34,1.92,.53,.64,.19,1.26,.38,1.89,.59,.49,.16,.98,.34,1.46,.51,.13,.04,.25,.09,.38,.14,.24,.1,.48,.2,.71,.3,.24,.1,.48,.19,.71,.29,.33,.14,.66,.29,.98,.43,.21,.1,.42,.19,.62,.29,.19,.09,.38,.19,.57,.28,.27,.13,.55,.26,.82,.4,.26,.13,.51,.28,.77,.41,.33,.18,.65,.35,.98,.52,.38,.19,.75,.38,1.13,.57,.11,.05,.23,.11,.34,.16,.21,.1,.42,.19,.64,.28,.14,.06,.28,.11,.43,.17,.24,.1,.47,.2,.71,.29,.27,.1,.56,.19,.83,.28,.36,.11,.73,.23,1.09,.34,.17,.05,.34,.09,.5,.14,.37,.09,.73,.19,1.1,.27,.32,.07,.64,.12,.96,.18,.29,.05,.57,.1,.87,.15,.2,.03,.4,.06,.6,.08,.28,.03,.56,.07,.85,.09,.3,.02,.59,.03,.89,.05,.04,0,2.87,0,2.94,0,.36-.02,.72-.03,1.08-.05,.04,0,.08-.01,.12-.02,.22-.03,.45-.06,.67-.09,.21-.03,.42-.05,.64-.08,.26-.04,.52-.09,.77-.14,.46-.09,.93-.18,1.39-.29,.39-.09,.78-.2,1.17-.3,.29-.08,.57-.17,.86-.26,.31-.1,.61-.21,.91-.32,.23-.08,.47-.17,.7-.26,.24-.1,.48-.2,.72-.31,.3-.13,.6-.26,.89-.4,.28-.13,.56-.28,.84-.43,.51-.28,1.03-.56,1.54-.87,.36-.22,.72-.45,1.06-.7,.19,.05,.37,.1,.56,.14,.01,0,.02,0,.04,0,.34,.08,.68,.14,1.02,.2,.3,.05,.61,.11,.92,.15,.21,.03,.42,.05,.64,.08,.3,.04,.6,.07,.9,.1,.31,.02,.63,.03,.94,.06,.04,0,3.04,0,3.11,0,.38-.03,.75-.04,1.14-.06,.04,0,.08-.01,.13-.02,.23-.04,.47-.07,.71-.1,.23-.03,.45-.05,.67-.09,.28-.04,.55-.09,.83-.15,.49-.1,.98-.19,1.47-.3,.41-.1,.82-.21,1.24-.33,.3-.09,.6-.19,.9-.28,.33-.11,.64-.23,.97-.34,.25-.09,.49-.19,.75-.28,.26-.1,.51-.22,.76-.33,.31-.14,.63-.27,.94-.42,.3-.14,.59-.3,.89-.45,.54-.3,1.09-.59,1.63-.91,.41-.26,.83-.52,1.22-.81,.65-.46,1.3-.93,1.92-1.44,.59-.48,1.15-.99,1.7-1.52,.38-.36,.74-.75,1.1-1.13,.34-.37,.67-.74,.98-1.12,.41-.51,.8-1.02,1.19-1.55,.24-.32,.46-.64,.67-.98,.24-.37,.47-.74,.69-1.11,.19-.33,.38-.66,.56-1,.19-.36,.37-.73,.55-1.09,.15-.32,.3-.64,.44-.96,.16-.37,.3-.74,.45-1.1,.19-.39,.23-.8,.22-.81Zm-37.8,16.67c-.54,.15-1.09,.29-1.65,.42-.3,.07-.6,.13-.9,.18-.34,.06-.68,.11-1.02,.16-.39,.06-.79,.13-1.18,.16-.59,.05-1.17,.1-1.76,.11-.51,.01-1.02-.02-1.53-.04-.45-.02-.9-.04-1.35-.08-.26-.02-.52-.05-.78-.08-.13-.02-.27-.03-.4-.05-.33-.05-.66-.11-.98-.17-.32-.05-.64-.11-.95-.17-.32-.07-.63-.15-.94-.23-.33-.08-.66-.17-.99-.27-.31-.1-.63-.2-.94-.3-.25-.08-.49-.17-.74-.26-.25-.09-.49-.2-.73-.3-.33-.14-.66-.28-.98-.42-.28-.12-.55-.26-.82-.4-.26-.13-.53-.27-.79-.41-.31-.18-.62-.36-.92-.54-.28-.17-.56-.35-.84-.53-.32-.21-.64-.42-.96-.63-.37-.23-.74-.45-1.11-.66-.3-.18-.62-.35-.93-.51-.27-.14-.55-.26-.83-.39-.49-.22-.97-.44-1.46-.65-.26-.11-.53-.2-.79-.29-.46-.16-.92-.31-1.39-.46-.15-.05-.31-.09-.46-.14-.39-.1-.78-.21-1.17-.3-.12-.03-.25-.06-.37-.08,.23-.02,.46-.05,.69-.07,.42-.03,.84-.06,1.26-.08,.58-.04,1.17-.08,1.76-.09,1.22,0,2.45-.05,3.67,.05,.15,.01,.32,0,.48,.01,.49,.03,.97,.07,1.46,.11,.28,.03,.56,.05,.84,.08,.23,.03,.46,.06,.7,.08,.21,.03,.42,.04,.64,.08,.33,.05,.66,.11,.98,.16,.33,.05,.66,.11,.98,.15,.09,.01,.17,.02,.26,.04,.45,.09,.91,.19,1.37,.29,.49,.11,.98,.2,1.47,.32,.68,.18,1.36,.36,2.03,.56,.67,.2,1.34,.41,2,.63,.52,.17,1.03,.36,1.55,.54,.13,.05,.26,.1,.4,.15,.25,.1,.5,.21,.75,.31,.26,.1,.51,.19,.76,.3,.35,.15,.69,.31,1.04,.46,.22,.1,.44,.19,.66,.3,.21,.1,.41,.2,.61,.3,.28,.15,.58,.28,.87,.43,.27,.14,.54,.29,.81,.43,.34,.19,.69,.38,1.04,.55,.4,.21,.79,.41,1.2,.61,.12,.06,.24,.12,.36,.18,.19,.09,.4,.18,.6,.26-.19,.06-.38,.12-.57,.18Z"/>
</svg>